<?xml version="1.0" encoding="UTF-8" ?>
<!DOCTYPE svg PUBLIC "-//W3C//DTD SVG 1.1//EN" "http://www.w3.org/Graphics/SVG/1.1/DTD/svg11.dtd">
<svg width="1219pt" height="312pt" viewBox="0 0 1219 312" version="1.1" xmlns="http://www.w3.org/2000/svg">
<g id="#1d1853ff">
<path fill="#1d1853" opacity="1.00" d=" M 909.98 47.15 C 925.54 43.48 942.31 46.92 955.97 54.95 C 965.30 60.29 972.15 68.73 979.79 76.10 C 982.33 78.62 984.87 81.13 987.26 83.80 C 974.95 96.22 962.45 108.45 950.31 121.02 C 944.69 126.52 938.72 131.79 934.29 138.35 C 925.18 151.51 921.19 168.11 923.42 183.96 C 924.84 195.28 929.66 205.96 936.34 215.13 C 916.70 196.30 897.84 176.64 878.48 157.51 C 865.69 145.34 858.05 127.75 858.47 110.05 C 858.30 97.41 862.36 84.83 869.38 74.36 C 878.64 60.43 893.54 50.33 909.98 47.15 Z" />
<path fill="#1d1853" opacity="1.00" d=" M 440.19 57.40 C 443.40 57.43 446.62 57.43 449.83 57.35 C 453.31 59.86 452.39 64.29 452.45 68.01 C 452.41 91.02 452.46 114.03 452.42 137.04 C 452.38 139.13 452.60 142.06 455.12 142.55 C 460.40 143.11 465.74 142.72 471.05 142.82 C 472.24 142.67 474.84 143.18 474.37 141.08 C 474.47 130.06 474.52 119.03 474.17 108.02 C 474.10 105.96 474.15 103.24 476.45 102.37 C 479.94 101.06 483.85 101.80 487.40 102.56 C 489.39 106.39 488.55 110.77 488.84 114.91 C 489.03 126.30 489.05 137.71 488.57 149.09 C 488.59 152.16 487.15 155.65 483.90 156.42 C 475.72 158.09 467.30 157.53 459.00 157.68 C 453.50 157.62 447.30 157.87 442.80 154.14 C 438.65 150.74 437.75 145.03 437.68 139.98 C 437.71 113.98 437.64 87.98 437.71 61.98 C 437.47 60.02 439.10 58.76 440.19 57.40 Z" />
<path fill="#1d1853" opacity="1.00" d=" M 375.32 61.35 C 378.25 60.40 381.70 60.35 384.60 61.42 C 388.08 63.17 387.08 67.65 387.14 70.81 C 387.23 73.09 385.55 75.60 383.09 75.55 C 380.54 75.69 377.95 75.79 375.42 75.39 C 372.08 74.01 372.72 69.90 372.69 66.98 C 372.56 64.83 373.08 62.23 375.32 61.35 Z" />
<path fill="#1d1853" opacity="1.00" d=" M 534.82 68.75 C 538.77 67.56 544.02 66.45 547.30 69.63 C 549.01 73.07 548.43 77.26 548.00 80.95 C 545.67 85.87 539.02 84.60 534.80 83.24 C 532.88 78.68 532.89 73.30 534.82 68.75 Z" />
<path fill="#1d1853" opacity="1.00" d=" M 558.67 67.86 C 562.20 67.47 567.44 66.98 569.01 71.09 C 569.55 74.31 569.50 77.66 569.03 80.89 C 567.80 84.63 563.19 84.54 559.98 84.32 C 557.11 84.36 554.08 82.17 554.55 79.02 C 554.57 75.10 553.29 68.70 558.67 67.86 Z" />
<path fill="#1d1853" opacity="1.00" d=" M 164.08 76.07 C 166.38 71.11 173.10 72.70 177.37 73.61 C 179.59 78.15 179.59 83.92 177.35 88.45 C 173.29 89.17 167.92 90.66 164.68 87.29 C 162.97 83.89 163.53 79.70 164.08 76.07 Z" />
<path fill="#1d1853" opacity="1.00" d=" M 307.96 73.82 C 311.47 71.87 315.67 72.81 319.40 73.54 C 321.72 77.23 321.31 81.86 320.73 85.98 C 319.55 89.68 314.98 89.41 311.88 89.31 C 308.91 89.54 305.53 87.36 306.19 84.03 C 306.64 80.71 304.83 76.14 307.96 73.82 Z" />
<path fill="#1d1853" opacity="1.00" d=" M 698.26 73.29 C 701.50 72.43 705.29 72.20 708.38 73.71 C 711.32 75.85 710.18 79.92 710.40 83.02 C 710.76 85.72 709.36 88.78 706.41 89.12 C 703.30 89.37 699.76 89.87 697.01 88.08 C 694.83 86.39 695.50 83.37 695.33 80.98 C 695.36 78.27 694.98 74.30 698.26 73.29 Z" />
<path fill="#1d1853" opacity="1.00" d=" M 362.39 79.35 C 363.68 75.78 368.02 76.51 371.02 76.50 C 373.76 76.10 376.58 78.23 376.53 81.08 C 376.67 85.09 377.63 90.17 373.39 92.46 C 369.87 92.08 365.28 93.59 362.75 90.36 C 361.28 86.95 361.53 82.89 362.39 79.35 Z" />
<path fill="#1d1853" opacity="1.00" d=" M 383.76 77.79 C 387.22 76.27 391.25 76.03 394.87 76.94 C 398.53 78.91 397.55 83.58 397.61 87.00 C 397.95 90.06 395.12 92.83 392.08 92.46 C 388.89 92.59 384.13 92.89 383.04 89.00 C 382.44 85.29 382.54 81.38 383.76 77.79 Z" />
<path fill="#1d1853" opacity="1.00" d=" M 252.93 95.84 C 261.44 93.81 270.31 94.69 278.84 96.06 C 281.03 96.71 284.59 97.12 284.66 100.06 C 284.83 114.31 284.67 128.57 284.72 142.82 C 291.89 142.21 299.57 144.27 306.33 141.30 C 306.31 129.85 306.33 118.40 306.30 106.95 C 306.12 105.12 307.00 102.75 309.04 102.46 C 312.02 102.10 315.06 102.11 318.04 102.48 C 320.02 102.86 320.76 105.14 320.60 106.93 C 320.57 118.43 320.61 129.93 320.56 141.43 C 324.81 143.28 329.52 142.76 334.03 142.87 C 336.55 142.74 339.42 143.09 341.54 141.41 C 342.27 135.97 341.63 130.43 341.84 124.95 C 342.09 119.54 341.08 113.97 342.79 108.73 C 346.04 107.66 349.53 107.35 352.91 107.96 C 355.19 108.40 356.22 110.82 356.20 112.93 C 356.41 122.54 355.93 132.17 356.39 141.77 C 361.73 143.81 368.31 144.28 373.50 141.50 C 373.47 130.14 373.25 118.75 373.58 107.39 C 374.50 101.85 381.37 104.06 385.27 103.57 C 388.60 105.63 387.76 109.67 387.82 112.98 C 387.72 122.49 387.94 132.00 387.70 141.51 C 393.01 144.13 399.10 143.08 404.81 143.32 C 405.99 129.57 404.68 115.72 405.11 101.94 C 405.78 97.85 410.92 98.59 413.97 98.60 C 416.68 98.26 419.55 100.26 419.37 103.16 C 419.76 114.42 419.43 125.70 419.54 136.96 C 419.44 142.22 419.93 147.59 418.61 152.74 C 417.27 156.60 412.52 156.77 409.09 157.22 C 399.96 157.62 390.32 158.32 381.80 154.37 C 371.61 158.99 359.43 158.79 349.21 154.47 C 345.68 155.84 342.12 157.33 338.26 157.44 C 329.79 157.85 320.72 158.34 313.00 154.22 C 304.36 158.93 294.23 157.42 284.81 157.64 C 284.76 165.42 283.49 173.92 277.69 179.63 C 270.56 186.92 259.59 187.80 249.97 187.60 C 245.32 187.26 240.36 188.09 236.01 186.07 C 234.52 183.34 235.37 179.91 235.30 176.91 C 235.06 174.84 237.20 173.93 238.94 173.99 C 247.49 173.92 256.63 175.25 264.68 171.66 C 269.89 169.16 270.33 162.72 270.32 157.67 C 260.94 157.48 250.78 158.81 242.31 153.79 C 235.51 150.01 231.77 142.47 230.92 134.95 C 230.10 126.35 230.10 117.13 234.33 109.34 C 238.02 102.26 245.21 97.45 252.93 95.84 M 251.95 110.98 C 246.97 113.69 244.88 119.63 245.13 125.03 C 245.02 130.75 244.97 138.12 250.62 141.39 C 256.67 144.44 263.71 142.95 270.22 143.28 C 270.24 131.78 270.24 120.29 270.22 108.79 C 264.11 108.85 257.47 107.64 251.95 110.98 Z" />
<path fill="#1d1853" opacity="1.00" d=" M 541.02 97.03 C 551.29 93.62 562.47 93.95 572.95 96.21 C 574.86 96.44 577.02 97.74 576.69 99.96 C 576.78 111.97 576.66 123.98 576.72 135.99 C 576.74 138.44 577.12 141.90 580.06 142.49 C 586.30 143.21 592.61 142.65 598.88 142.81 C 598.87 128.87 598.88 114.93 598.87 100.99 C 598.71 98.83 599.56 96.04 601.94 95.52 C 604.98 95.12 608.10 95.13 611.13 95.66 C 613.09 96.73 613.36 99.07 613.72 101.04 C 626.03 94.74 640.72 93.54 654.11 96.63 C 662.59 98.49 670.13 104.52 673.18 112.73 C 676.78 122.29 676.50 132.82 675.50 142.84 C 682.15 142.27 689.25 144.11 695.57 141.44 C 695.68 129.96 695.54 118.47 695.63 106.99 C 695.48 105.22 696.26 103.42 697.84 102.51 C 701.24 102.11 704.74 102.05 708.15 102.60 C 709.86 103.83 710.29 106.01 710.23 107.99 C 710.20 119.19 710.22 130.40 710.20 141.60 C 714.93 143.27 720.03 142.86 724.96 142.76 C 727.29 142.73 730.63 141.95 730.71 139.08 C 732.32 129.34 729.22 118.86 733.67 109.62 C 737.01 101.44 745.37 96.11 754.03 95.41 C 762.75 94.55 772.62 95.34 779.25 101.75 C 785.88 107.90 787.19 117.45 787.25 126.03 C 787.22 134.66 786.89 144.15 781.24 151.21 C 776.52 157.37 768.37 159.35 760.98 159.65 C 752.89 159.91 744.19 158.43 737.96 152.86 C 732.76 157.32 725.58 157.74 719.06 157.68 C 713.39 157.62 707.51 157.09 702.50 154.21 C 697.45 156.84 691.71 157.71 686.06 157.67 C 654.70 157.65 623.33 157.67 591.97 157.66 C 583.36 157.49 572.76 159.18 566.56 151.67 C 558.82 156.28 549.15 156.30 540.56 154.60 C 531.30 152.63 524.21 144.38 523.15 135.05 C 522.46 127.53 522.00 119.63 524.57 112.39 C 527.24 105.04 533.64 99.39 541.02 97.03 M 543.77 110.66 C 539.35 112.93 537.12 117.89 537.00 122.69 C 536.81 127.98 536.83 134.13 540.68 138.25 C 544.71 142.01 550.74 141.44 555.82 141.20 C 558.67 140.97 562.59 139.57 562.47 136.10 C 562.61 126.96 562.46 117.81 562.52 108.67 C 556.26 108.52 549.58 107.77 543.77 110.66 M 613.40 115.30 C 613.42 124.45 613.47 133.61 613.38 142.77 C 615.58 143.07 617.79 143.32 620.03 143.31 C 633.49 143.29 646.96 143.25 660.42 143.33 C 662.28 135.59 662.17 127.15 659.69 119.55 C 657.59 113.39 651.08 110.36 645.00 109.73 C 634.29 108.76 622.85 109.74 613.40 115.30 M 757.06 108.96 C 753.57 109.44 749.80 110.71 747.98 113.97 C 744.78 119.40 745.33 125.97 745.38 132.02 C 745.51 136.27 745.93 141.55 750.03 143.94 C 755.10 146.26 761.17 146.42 766.40 144.54 C 771.04 142.90 772.20 137.42 772.53 133.07 C 772.65 126.63 773.41 119.66 770.14 113.80 C 767.67 109.28 761.70 108.48 757.06 108.96 Z" />
<path fill="#1d1853" opacity="1.00" d=" M 165.76 102.64 C 169.25 102.02 172.91 102.05 176.41 102.58 C 178.32 103.69 178.53 106.02 178.45 108.01 C 178.39 126.66 178.47 145.32 178.41 163.97 C 178.31 170.49 177.79 177.96 172.56 182.60 C 166.53 188.06 157.71 187.87 150.10 187.41 C 147.79 187.43 145.91 186.05 144.39 184.45 C 144.50 181.80 144.51 179.15 144.44 176.50 C 148.95 171.51 156.98 176.25 162.07 172.07 C 163.99 170.25 163.62 167.35 163.82 164.95 C 163.82 145.98 163.82 127.00 163.81 108.02 C 163.82 106.10 164.09 103.88 165.76 102.64 Z" />
<path fill="#1d1853" opacity="1.00" d=" M 203.17 102.78 C 206.69 101.86 210.48 102.16 214.08 102.57 C 215.57 103.55 215.86 105.33 215.79 106.98 C 215.75 127.00 215.82 147.01 215.75 167.03 C 215.90 173.02 214.26 179.47 209.42 183.40 C 203.71 187.86 196.01 187.93 189.12 187.45 C 186.96 187.42 184.95 185.71 184.91 183.49 C 184.81 180.61 184.33 177.36 186.03 174.84 C 190.30 173.25 195.49 175.16 199.42 172.40 C 201.79 169.79 201.36 165.93 201.59 162.66 C 201.68 144.10 201.62 125.54 201.61 106.98 C 201.47 105.40 201.88 103.80 203.17 102.78 Z" />
<path fill="#1d1853" opacity="1.00" d=" M 467.20 166.30 C 470.30 165.78 473.59 165.67 476.66 166.47 C 480.42 168.54 479.16 173.54 479.28 177.07 C 479.50 180.94 475.31 182.81 471.99 182.29 C 468.63 182.79 463.69 181.29 464.32 177.02 C 464.69 173.48 462.80 167.89 467.20 166.30 Z" />
</g>
<g id="#3693ffff">
<path fill="#3693ff" opacity="1.00" d=" M 1006.52 64.48 C 1016.92 53.75 1031.26 47.62 1045.95 45.77 C 1054.75 44.64 1063.56 46.53 1072.02 48.84 C 1094.47 56.16 1112.08 76.51 1115.55 99.93 C 1116.21 107.28 1116.26 114.73 1115.39 122.06 C 1113.01 135.19 1106.47 147.54 1096.89 156.84 C 1078.12 175.50 1059.69 194.51 1040.71 212.94 C 1043.48 206.64 1047.21 200.75 1049.12 194.10 C 1053.94 177.84 1052.34 159.64 1044.27 144.67 C 1037.17 131.27 1025.18 120.52 1011.04 115.00 C 997.33 109.48 981.68 109.10 967.61 113.55 C 961.55 115.36 956.24 118.91 950.31 121.02 C 962.45 108.45 974.95 96.22 987.26 83.80 C 993.67 77.36 1000.10 70.93 1006.52 64.48 Z" />
</g>
<g id="#43baffff">
<path fill="#43baff" opacity="1.00" d=" M 967.61 113.55 C 981.68 109.10 997.33 109.48 1011.04 115.00 C 1025.18 120.52 1037.17 131.27 1044.27 144.67 C 1052.34 159.64 1053.94 177.84 1049.12 194.10 C 1047.21 200.75 1043.48 206.64 1040.71 212.94 C 1023.16 231.21 1004.86 248.81 987.17 266.98 C 981.06 259.74 973.90 253.46 967.36 246.61 C 957.07 236.07 946.32 225.95 936.34 215.13 C 929.66 205.96 924.84 195.28 923.42 183.96 C 921.19 168.11 925.18 151.51 934.29 138.35 C 938.72 131.79 944.69 126.52 950.31 121.02 C 956.24 118.91 961.55 115.36 967.61 113.55 M 957.94 136.85 C 946.48 145.52 939.42 159.59 939.18 173.94 C 938.74 186.63 943.58 199.41 952.42 208.54 C 963.98 220.33 975.81 231.85 987.30 243.71 C 999.04 231.97 1010.81 220.26 1022.45 208.43 C 1035.30 195.06 1039.12 174.14 1032.06 157.03 C 1026.43 142.84 1013.67 131.65 998.77 128.20 C 984.79 124.59 969.29 127.99 957.94 136.85 Z" />
</g>
<g id="#ffffffff">
<path fill="#ffffff" opacity="1.00" d=" M 957.94 136.85 C 969.29 127.99 984.79 124.59 998.77 128.20 C 1013.67 131.65 1026.43 142.84 1032.06 157.03 C 1039.12 174.14 1035.30 195.06 1022.45 208.43 C 1010.81 220.26 999.04 231.97 987.30 243.71 C 975.81 231.85 963.98 220.33 952.42 208.54 C 943.58 199.41 938.74 186.63 939.18 173.94 C 939.42 159.59 946.48 145.52 957.94 136.85 Z" />
</g>
<g id="#5f6061ea">
<path fill="#5f6061" opacity="0.92" d=" M 353.47 236.49 C 353.55 225.91 353.29 215.32 353.60 204.74 C 354.57 204.74 356.50 204.73 357.47 204.73 C 357.71 210.09 357.59 215.46 357.57 220.83 C 362.94 218.46 369.26 217.41 374.87 219.58 C 378.51 221.11 380.63 225.00 380.77 228.84 C 380.95 232.71 381.28 236.85 379.42 240.40 C 368.95 240.62 358.48 240.45 348.01 240.52 C 345.62 240.63 343.37 239.64 341.02 239.54 C 338.69 240.00 336.37 240.63 333.97 240.54 C 323.32 240.46 312.66 240.55 302.01 240.49 C 297.97 240.33 293.38 239.69 290.57 236.47 C 287.48 232.43 287.86 227.00 288.58 222.25 C 289.80 222.32 291.03 222.39 292.26 222.48 C 291.59 226.77 291.10 232.99 295.83 235.19 C 301.21 237.56 307.28 236.07 312.96 236.50 C 310.83 232.29 310.16 226.83 312.63 222.64 C 316.47 216.96 324.59 217.72 330.35 219.41 C 330.19 225.08 330.34 230.74 330.20 236.41 C 333.10 235.97 337.28 237.79 339.27 235.14 C 339.56 230.57 339.25 225.97 339.40 221.39 C 340.79 221.39 342.18 221.39 343.58 221.39 C 343.64 226.35 343.49 231.32 343.74 236.28 C 346.98 236.48 350.22 236.51 353.47 236.49 M 315.99 224.97 C 314.76 227.94 314.81 231.70 316.57 234.45 C 318.77 237.43 322.89 236.26 326.05 236.46 C 325.81 231.73 325.90 226.98 325.89 222.24 C 322.51 222.37 317.86 221.25 315.99 224.97 M 357.61 224.76 C 357.60 228.66 357.60 232.56 357.60 236.46 C 363.85 236.49 370.11 236.52 376.37 236.44 C 376.53 232.17 377.57 226.58 373.53 223.71 C 368.50 221.25 362.49 222.51 357.61 224.76 Z" />
<path fill="#5f6061" opacity="0.92" d=" M 428.76 205.64 C 429.66 204.31 431.42 204.88 432.77 204.63 C 432.91 216.27 432.97 227.93 432.74 239.58 C 427.44 241.03 421.66 241.01 416.43 239.30 C 413.00 240.72 409.27 240.59 405.63 240.52 C 405.42 243.70 405.14 247.34 402.43 249.48 C 398.44 252.41 393.17 251.46 388.55 251.35 C 388.56 250.43 388.57 248.60 388.58 247.68 C 392.00 247.50 395.67 248.28 398.92 246.95 C 401.40 245.80 401.56 242.91 401.67 240.54 C 397.26 240.48 391.78 241.22 388.73 237.25 C 385.82 232.83 386.05 226.39 389.09 222.08 C 393.08 217.40 400.13 217.94 405.51 219.44 C 405.46 225.12 405.48 230.80 405.49 236.49 C 408.44 236.49 411.39 236.47 414.34 236.36 C 414.89 231.42 414.58 226.44 414.64 221.49 C 416.03 221.42 417.43 221.36 418.84 221.32 C 419.01 226.30 418.78 231.30 419.16 236.28 C 422.29 236.48 425.43 236.51 428.57 236.49 C 428.91 226.21 428.51 215.92 428.76 205.64 M 392.94 223.89 C 390.29 226.34 390.87 230.50 391.48 233.68 C 393.22 237.67 398.10 236.27 401.52 236.49 C 401.51 231.79 401.51 227.09 401.52 222.39 C 398.67 222.55 395.15 221.54 392.94 223.89 Z" />
<path fill="#5f6061" opacity="0.92" d=" M 440.80 204.64 C 442.24 204.62 443.67 204.61 445.12 204.61 C 445.14 216.56 445.18 228.50 445.10 240.45 C 443.67 240.45 442.24 240.44 440.82 240.43 C 440.74 228.50 440.76 216.57 440.80 204.64 Z" />
<path fill="#5f6061" opacity="0.92" d=" M 532.86 204.86 C 533.79 204.79 535.64 204.65 536.57 204.58 C 537.65 209.32 537.02 214.20 537.16 219.00 C 537.03 225.90 537.57 232.83 536.66 239.70 C 534.49 240.23 532.27 240.58 530.04 240.53 C 518.72 240.46 507.42 240.57 496.11 240.47 C 495.82 243.62 496.42 247.43 493.92 249.86 C 491.40 252.16 487.74 251.43 484.64 251.44 C 484.65 250.53 484.68 248.71 484.69 247.80 C 486.92 247.40 490.67 248.56 491.48 245.63 C 491.96 237.60 491.51 229.52 491.67 221.47 C 493.06 221.42 494.46 221.37 495.87 221.33 C 496.02 226.39 495.86 231.46 496.04 236.52 C 504.57 236.42 513.11 236.53 521.64 236.46 C 519.65 232.29 518.59 227.21 514.61 224.40 C 511.26 222.14 507.02 222.66 503.21 222.72 C 503.28 221.59 503.37 220.46 503.47 219.34 C 508.16 219.23 513.58 218.19 517.56 221.37 C 522.30 225.06 523.94 231.11 526.04 236.46 C 528.28 236.46 530.53 236.45 532.78 236.39 C 532.86 225.88 532.72 215.37 532.86 204.86 Z" />
<path fill="#5f6061" opacity="0.92" d=" M 545.06 204.56 C 546.44 204.58 547.82 204.61 549.20 204.66 C 549.26 216.58 549.27 228.51 549.20 240.44 C 547.76 240.44 546.33 240.44 544.91 240.44 C 544.94 228.48 544.66 216.51 545.06 204.56 Z" />
<path fill="#5f6061" opacity="0.92" d=" M 586.32 244.37 C 586.46 231.14 586.06 217.89 586.52 204.67 C 587.48 204.70 589.39 204.77 590.34 204.80 C 590.53 215.36 590.37 225.93 590.43 236.50 C 593.39 236.49 596.36 236.46 599.33 236.36 C 600.11 232.39 599.15 228.20 600.49 224.34 C 603.20 217.24 614.91 216.77 618.21 223.59 C 619.89 227.30 619.26 231.47 619.14 235.41 C 622.59 237.11 626.50 236.36 630.20 236.46 C 628.71 232.29 626.65 228.29 625.67 223.95 C 625.22 221.25 628.47 220.05 630.48 219.24 C 635.13 217.86 641.13 217.44 644.89 221.07 C 648.63 225.50 647.55 232.05 644.49 236.54 C 648.12 236.46 651.76 236.49 655.40 236.45 C 655.70 225.89 655.30 215.32 655.61 204.77 C 656.59 204.75 658.53 204.73 659.50 204.71 C 659.75 216.30 659.73 227.91 659.50 239.51 C 657.43 240.26 655.25 240.58 653.07 240.53 C 643.05 240.48 633.03 240.52 623.01 240.52 C 620.92 240.60 618.96 239.86 617.03 239.18 C 612.73 242.72 606.09 242.66 601.75 239.26 C 598.16 240.76 594.25 240.58 590.46 240.52 C 590.38 242.85 590.28 245.18 590.19 247.51 C 584.10 249.01 576.70 249.67 571.43 245.61 C 566.33 241.13 567.50 233.60 567.87 227.57 C 568.75 227.52 570.51 227.42 571.39 227.37 C 571.27 232.09 570.28 237.58 573.43 241.60 C 576.60 245.28 581.98 244.51 586.32 244.37 M 629.59 223.65 C 631.24 227.99 632.88 232.34 634.60 236.66 C 641.96 238.28 646.25 227.57 640.98 223.07 C 637.39 221.44 633.11 222.15 629.59 223.65 M 608.00 222.72 C 603.05 223.94 603.61 230.14 604.03 234.07 C 604.59 238.62 611.63 239.19 614.05 236.02 C 615.59 232.75 615.47 228.78 614.35 225.39 C 613.34 222.96 610.40 222.13 608.00 222.72 Z" />
<path fill="#5f6061" opacity="0.92" d=" M 667.66 204.65 C 668.64 204.60 670.60 204.50 671.58 204.44 C 671.91 216.48 671.81 228.54 671.63 240.58 C 670.64 240.54 668.65 240.47 667.66 240.43 C 667.54 228.51 667.55 216.58 667.66 204.65 Z" />
<path fill="#5f6061" opacity="0.92" d=" M 319.52 208.53 C 320.89 208.48 322.27 208.44 323.65 208.42 C 323.64 210.03 323.61 211.64 323.55 213.25 C 322.22 213.24 320.89 213.23 319.57 213.22 C 319.53 211.65 319.51 210.09 319.52 208.53 Z" />
<path fill="#5f6061" opacity="0.92" d=" M 366.12 208.40 C 367.49 208.45 368.88 208.51 370.26 208.59 C 370.24 210.10 370.23 211.63 370.21 213.15 C 368.89 213.20 367.57 213.26 366.26 213.32 C 366.17 211.68 366.13 210.04 366.12 208.40 Z" />
<path fill="#5f6061" opacity="0.92" d=" M 694.60 208.65 C 695.88 208.62 697.17 208.61 698.47 208.60 C 698.49 210.19 698.51 211.79 698.51 213.38 C 697.17 213.38 695.84 213.37 694.52 213.36 C 694.52 211.79 694.55 210.22 694.60 208.65 Z" />
<path fill="#5f6061" opacity="0.92" d=" M 702.47 208.57 C 703.74 208.60 705.02 208.63 706.31 208.67 C 706.32 210.22 706.33 211.78 706.33 213.34 C 705.02 213.36 703.71 213.39 702.41 213.41 C 702.39 211.79 702.41 210.18 702.47 208.57 Z" />
<path fill="#5f6061" opacity="0.92" d=" M 410.70 210.55 C 412.02 210.49 413.34 210.44 414.67 210.40 C 414.66 212.05 414.84 213.75 414.24 215.33 C 412.95 215.14 411.67 214.92 410.41 214.66 C 410.50 213.29 410.60 211.92 410.70 210.55 Z" />
<path fill="#5f6061" opacity="0.92" d=" M 418.42 210.49 C 419.77 210.47 421.14 210.47 422.50 210.48 C 422.46 212.06 422.41 213.64 422.34 215.22 C 421.09 215.23 419.86 215.24 418.62 215.25 C 418.52 213.66 418.45 212.07 418.42 210.49 Z" />
<path fill="#5f6061" opacity="0.92" d=" M 754.74 210.56 C 756.03 210.49 757.34 210.42 758.65 210.37 C 758.67 212.02 759.15 213.82 758.19 215.31 C 756.94 215.15 755.71 214.94 754.50 214.67 C 754.57 213.30 754.65 211.93 754.74 210.56 Z" />
<path fill="#5f6061" opacity="0.92" d=" M 232.40 213.50 C 233.74 213.51 235.09 213.52 236.44 213.54 C 236.41 215.11 236.38 216.68 236.33 218.25 C 235.05 218.26 233.77 218.27 232.50 218.28 C 232.44 216.69 232.40 215.09 232.40 213.50 Z" />
<path fill="#5f6061" opacity="0.92" d=" M 691.67 223.69 C 695.23 217.62 703.55 217.70 709.53 219.40 C 709.87 225.07 708.57 230.98 710.41 236.46 C 713.15 236.46 715.89 236.48 718.64 236.48 C 718.64 230.53 718.61 224.57 718.66 218.62 C 719.96 218.54 721.28 218.47 722.61 218.40 C 722.68 219.04 722.82 220.30 722.89 220.93 C 728.60 218.20 735.84 217.13 741.54 220.38 C 746.72 223.96 746.24 230.97 745.83 236.50 C 748.57 236.48 751.34 236.62 754.08 236.19 C 755.40 231.45 754.30 226.34 754.62 221.46 C 755.98 221.41 757.35 221.38 758.74 221.35 C 759.01 226.38 758.28 231.49 759.36 236.46 C 762.00 236.01 765.95 237.71 767.61 234.88 C 768.05 231.29 767.17 227.50 768.61 224.07 C 771.52 216.42 784.99 216.69 786.93 224.92 C 787.76 229.66 788.30 235.77 784.29 239.29 C 780.02 242.36 774.01 241.66 769.84 238.75 C 765.84 241.17 760.87 240.98 756.64 239.30 C 754.16 240.09 751.59 240.66 748.98 240.54 C 736.65 240.46 724.33 240.54 712.00 240.51 C 709.80 240.72 707.96 239.47 706.21 238.36 C 702.43 239.82 697.77 240.48 694.19 238.19 C 689.65 235.03 689.81 228.30 691.67 223.69 M 698.53 222.67 C 693.62 224.44 693.32 232.58 697.49 235.27 C 700.10 235.88 703.01 235.87 705.30 234.30 C 705.21 230.36 705.23 226.41 705.29 222.46 C 703.04 222.41 700.73 222.11 698.53 222.67 M 723.08 224.97 C 722.49 228.75 722.92 232.59 722.80 236.40 C 729.06 236.55 735.33 236.48 741.60 236.45 C 741.72 233.45 742.09 230.38 741.40 227.43 C 740.70 224.56 737.87 222.83 735.08 222.58 C 730.98 222.12 726.59 222.71 723.08 224.97 M 774.37 223.29 C 771.85 224.94 771.97 228.37 771.96 231.04 C 771.84 233.43 772.53 236.35 775.12 237.15 C 777.58 237.69 780.93 237.75 782.34 235.24 C 783.55 232.12 783.42 228.54 782.54 225.36 C 781.46 222.13 776.93 221.63 774.37 223.29 Z" />
<path fill="#5f6061" opacity="0.92" d=" M 148.32 218.68 C 152.84 218.39 158.20 217.78 161.71 221.31 C 165.70 225.24 165.17 231.34 165.18 236.48 C 168.60 236.49 172.03 236.49 175.45 236.44 C 173.94 232.30 171.91 228.33 170.78 224.06 C 170.21 221.95 172.54 220.65 174.11 219.88 C 178.66 217.91 184.38 217.41 188.80 219.96 C 193.95 223.86 192.94 231.68 189.72 236.53 C 193.07 236.47 196.41 236.48 199.76 236.46 C 199.99 231.35 199.80 226.23 199.96 221.11 C 201.37 221.23 202.78 221.36 204.19 221.49 C 204.05 226.35 204.25 231.22 204.11 236.08 C 203.95 237.59 204.03 239.75 202.16 240.20 C 199.77 240.58 197.35 240.52 194.94 240.53 C 178.99 240.45 163.04 240.59 147.08 240.45 C 147.08 239.48 147.06 237.52 147.06 236.55 C 151.68 236.44 156.31 236.48 160.94 236.49 C 160.75 232.42 161.82 227.53 158.71 224.28 C 155.99 221.40 151.66 222.59 148.17 222.39 C 148.21 221.46 148.28 219.61 148.32 218.68 M 174.82 223.71 C 176.44 228.00 178.04 232.30 179.70 236.58 C 181.85 236.42 184.39 236.80 185.98 234.98 C 189.09 231.80 189.87 225.06 185.46 222.67 C 181.94 221.72 178.10 222.12 174.82 223.71 Z" />
<path fill="#5f6061" opacity="0.92" d=" M 256.34 221.41 C 259.97 217.54 265.74 218.48 270.48 218.74 C 270.53 219.66 270.61 221.51 270.65 222.44 C 266.56 222.57 260.92 221.06 258.43 225.39 C 257.00 228.93 257.46 233.73 260.48 236.34 C 264.14 236.70 267.84 236.40 271.52 236.50 C 271.51 237.83 271.51 239.15 271.50 240.48 C 262.93 240.57 254.35 240.42 245.78 240.57 C 245.82 242.83 245.86 245.09 245.91 247.36 C 239.63 249.18 231.99 249.61 226.42 245.65 C 221.13 241.24 222.24 233.57 222.84 227.51 C 223.78 227.49 225.67 227.45 226.61 227.43 C 226.27 231.94 225.30 237.04 227.91 241.08 C 231.04 245.28 236.89 244.54 241.49 244.39 C 241.64 236.75 241.52 229.11 241.55 221.47 C 242.96 221.42 244.37 221.38 245.79 221.35 C 245.88 226.41 245.77 231.46 245.91 236.51 C 248.98 236.48 252.06 236.47 255.13 236.52 C 253.14 231.76 252.20 225.33 256.34 221.41 Z" />
<path fill="#5f6061" opacity="0.92" d=" M 452.51 226.11 C 453.51 220.97 458.99 217.95 463.97 218.43 C 466.24 218.83 469.60 217.74 470.98 220.08 C 471.36 226.04 470.98 232.03 471.14 238.00 C 471.12 241.83 471.46 246.44 468.18 249.16 C 464.12 252.52 458.43 251.47 453.59 251.29 C 453.81 250.06 454.04 248.84 454.30 247.62 C 457.89 247.39 462.17 248.66 465.24 246.23 C 467.29 244.73 466.57 241.95 466.78 239.79 C 462.87 240.84 458.04 241.20 454.91 238.14 C 451.60 235.12 451.95 230.14 452.51 226.11 M 458.06 224.06 C 455.68 226.93 455.67 231.45 457.46 234.63 C 459.55 237.47 463.49 236.20 466.49 236.42 C 466.93 231.75 466.72 227.06 466.75 222.38 C 463.83 222.46 460.31 221.65 458.06 224.06 Z" />
<path fill="#5f6061" opacity="0.92" d=" M 196.35 244.67 C 197.67 244.69 198.99 244.72 200.31 244.75 C 200.33 246.29 200.33 247.82 200.33 249.36 C 198.99 249.41 197.66 249.45 196.34 249.49 C 196.32 247.88 196.32 246.27 196.35 244.67 Z" />
<path fill="#5f6061" opacity="0.92" d=" M 334.77 244.74 C 336.05 244.71 337.33 244.68 338.63 244.66 C 338.66 246.27 338.66 247.88 338.65 249.49 C 337.33 249.45 336.01 249.40 334.70 249.35 C 334.71 247.81 334.73 246.27 334.77 244.74 Z" />
<path fill="#5f6061" opacity="0.92" d=" M 342.57 244.72 C 343.87 244.71 345.18 244.70 346.49 244.70 C 346.51 246.28 346.51 247.86 346.50 249.44 C 345.19 249.44 343.89 249.44 342.60 249.44 C 342.57 247.86 342.56 246.29 342.57 244.72 Z" />
</g>
</svg>
